<svg width="14" height="13" viewBox="0 0 14 13" fill="none" xmlns="http://www.w3.org/2000/svg">
<path d="M8.62644 0.848808C9.10454 0.624027 9.6255 0.505059 10.1538 0.500019C10.5972 0.498517 11.0364 0.585416 11.4458 0.75564C11.8556 0.926036 12.2273 1.1765 12.5391 1.49236C12.851 1.80822 13.0966 2.18313 13.2617 2.59512C13.4268 3.00711 13.508 3.4479 13.5006 3.89168L13.5005 3.89168V3.90003C13.5005 5.07674 12.9821 6.18251 11.9709 7.43449C10.954 8.69364 9.49007 10.0398 7.67785 11.7063C7.6776 11.7065 7.67735 11.7067 7.67709 11.707L7.00235 12.3219L6.3243 11.6973L6.32364 11.6967C4.51118 10.033 3.04703 8.68808 2.02999 7.43006C1.01879 6.17927 0.500534 5.07457 0.500534 3.90003H0.500604L0.500465 3.89168C0.493057 3.4479 0.574278 3.00711 0.739372 2.59512C0.904465 2.18313 1.15011 1.80822 1.46192 1.49236C1.77373 1.1765 2.14544 0.926036 2.55527 0.75564C2.96468 0.585416 3.40392 0.498517 3.8473 0.500019C4.37557 0.505059 4.89653 0.624027 5.37463 0.848808C5.85313 1.07378 6.2774 1.39944 6.61843 1.80351L7.00053 2.25625L7.38264 1.80351C7.72367 1.39944 8.14794 1.07378 8.62644 0.848808Z" fill="#EA6560" fill-opacity="0.4" stroke="#EA6560"/>
</svg>
