<svg width="14" height="13" viewBox="0 0 14 13" fill="none" xmlns="http://www.w3.org/2000/svg">
<path d="M7.00053 13L5.98553 12.065C2.38053 8.75603 0.000534427 6.57403 0.000534427 3.90003C-0.00798414 3.38974 0.0854107 2.88288 0.275249 2.40913C0.465087 1.93539 0.747551 1.5043 1.1061 1.14109C1.46464 0.777893 1.89206 0.48989 2.36331 0.293955C2.83456 0.0980208 3.34018 -0.0019062 3.85053 2.75376e-05C4.45126 0.00553783 5.04371 0.140718 5.58736 0.396324C6.13102 0.65193 6.61307 1.02193 7.00053 1.48103C7.388 1.02193 7.87005 0.65193 8.4137 0.396324C8.95736 0.140718 9.54981 0.00553783 10.1505 2.75376e-05C10.6609 -0.0019062 11.1665 0.0980208 11.6378 0.293955C12.109 0.48989 12.5364 0.777893 12.895 1.14109C13.2535 1.5043 13.536 1.93539 13.7258 2.40913C13.9157 2.88288 14.0091 3.38974 14.0005 3.90003C14.0005 6.57803 11.6205 8.76003 8.01553 12.075L7.00053 13Z" fill="#EA6560"/>
</svg>
